# xmcd CD database file generated by Grip 3.2.0
# 
# Track frame offsets:
#       150
#       14958
#       34394
#       54437
#       69976
#       85194
#       100053
#       125364
#       137793
#       151319
#       178177
#       202651
#       223026
# 
# Disc length: 3139 seconds
# 
# Revision: 1
# Processed by: cddbd v1.5.2PL0 Copyright (c) Steve Scherf et al.
# Submitted via: Grip 3.2.0
# 
DISCID=b50c410d
DTITLE=Brian Blade - Mama Rosa
DYEAR=2009
DGENRE=Jazz
TTITLE0=After the Revival
TTITLE1=Mercy Angel
TTITLE2=At the Centerline
TTITLE3=Brother
TTITLE4=Get There
TTITLE5=Second Home
TTITLE6=You'll Always Be My Baby
TTITLE7=Nature's Law
TTITLE8=Struggling with That
TTITLE9=All That Was Yesterday
TTITLE10=Her Song
TTITLE11=All Gospel Radio
TTITLE12=Psalm 100
EXTD=YEAR: 2009
EXTT0=
EXTT1=
EXTT2=
EXTT3=
EXTT4=
EXTT5=
EXTT6=
EXTT7=
EXTT8=
EXTT9=
EXTT10=
EXTT11=
EXTT12=
PLAYORDER=
